Coordinates
version=1
nRows=22
nColumns=24
inDegrees=yes

Units are S.I. units (second, meters, Newtons, ...)
Angles are in degrees.

endheader
time	pelvis_tilt	pelvis_list	pelvis_rotation	pelvis_tx	pelvis_ty	pelvis_tz	hip_flexion_r	hip_adduction_r	hip_rotation_r	knee_angle_r	ankle_angle_r	subtalar_angle_r	mtp_angle_r	hip_flexion_l	hip_adduction_l	hip_rotation_l	knee_angle_l	ankle_angle_l	subtalar_angle_l	mtp_angle_l	lumbar_extension	lumbar_bending	lumbar_rotation
      1.61466667	     -0.07089473	      7.53569044	     -2.04237568	      0.53879855	      0.99552331	      0.26517760	     21.71404481	     -8.95113650	      2.46690306	    -63.60409100	      5.96476332	    -12.77156887	      1.12469668	      4.69633815	     13.83759804	      0.96128509	     -8.58771051	      2.76093089	    -13.50185176	     -1.85707137	      0.30935511	     -5.39038468	      3.37868354
      1.61883333	      0.00663435	      7.43306205	     -1.89915313	      0.54346062	      0.99591601	      0.26492616	     22.12192870	     -8.81270731	      2.42334270	    -62.94299348	      6.37860708	    -12.84327539	      1.02289528	      4.13576881	     13.76767198	      1.25294143	     -8.31025087	      2.84488605	    -13.58103979	     -1.88496595	      0.16283005	     -5.28929711	      3.20819606
      1.62300000	      0.07125372	      7.33600358	     -1.74174647	      0.54812193	      0.99626317	      0.26465638	     22.52676865	     -8.68896644	      2.36131711	    -62.24201261	      6.73565996	    -12.89116659	      0.91017009	      3.58637294	     13.70106092	      1.56761969	     -8.02582925	      2.89091849	    -13.68930537	     -1.91531284	      0.03520534	     -5.19313456	      3.00760512
      1.62716667	      0.11093436	      7.22143527	     -1.56734979	      0.55276187	      0.99656360	      0.26440400	     22.93473028	     -8.54467082	      2.28329182	    -61.49198747	      7.06580204	    -12.93248646	      0.85184274	      3.09363606	     13.60539661	      1.83855536	     -7.80125070	      2.96433370	    -13.70682455	     -1.92894760	     -0.06176064	     -5.08256939	      2.89695400
      1.63133333	      0.19461082	      7.11707051	     -1.40069052	      0.55742083	      0.99690243	      0.26414986	     23.27894226	     -8.41783080	      2.20200513	    -60.70388161	      7.35665325	    -12.99447946	      0.77330389	      2.52850363	     13.52112308	      2.14586900	     -7.52516891	      3.02532383	    -13.78757815	     -1.94720907	     -0.21394475	     -4.98077819	      2.69494462
      1.63550000	      0.29082584	      7.05195750	     -1.26069638	      0.56208202	      0.99716816	      0.26390132	     23.62121942	     -8.33636130	      2.13953877	    -59.91502316	      7.57417148	    -13.04558047	      0.63093877	      1.92968868	     13.47920777	      2.47551234	     -7.19645345	      3.05399869	    -13.95500778	     -1.98076364	     -0.38278431	     -4.91616869	      2.41080653
      1.63966667	      0.30780112	      6.96431412	     -1.07809601	      0.56669208	      0.99732038	      0.26365473	     24.02161043	     -8.22952596	      2.05122495	    -59.08142974	      7.81062927	    -13.07978058	      0.55404443	      1.47394538	     13.39952500	      2.74920197	     -6.98736714	      3.14266255	    -13.97876548	     -1.99548449	     -0.45537102	     -4.83589957	      2.29507323
      1.64383333	      0.37734426	      6.90192122	     -0.93098804	      0.57134030	      0.99749457	      0.26342185	     24.36216565	     -8.14975552	      1.98233999	    -58.22790303	      7.96914597	    -13.15378264	      0.39643625	      0.91815074	     13.34926622	      3.06107851	     -6.68509000	      3.19676457	    -14.11021003	     -2.02795310	     -0.59412435	     -4.77508771	      2.01207340
      1.64800000	      0.39970450	      6.81766295	     -0.75320315	      0.57595051	      0.99759327	      0.26319447	     24.72733890	     -8.04774785	      1.89050243	    -57.33162713	      8.14551742	    -13.19116100	      0.31242348	      0.46224576	     13.26413858	      3.31978911	     -6.48374783	      3.30083874	    -14.11015951	     -2.04164753	     -0.67071015	     -4.69571536	      1.89897545
      1.65216667	      0.46636779	      6.76458440	     -0.60754207	      0.58058464	      0.99770261	      0.26298510	     25.04594090	     -7.97884492	      1.81725566	    -56.42622397	      8.25568266	    -13.26988702	      0.14148554	     -0.08011345	     13.21283321	      3.60860336	     -6.19685126	      3.37108203	    -14.20490648	     -2.07159980	     -0.81195772	     -4.64992018	      1.62209445
      1.65633333	      0.50644512	      6.70414752	     -0.44562011	      0.58519853	      0.99776119	      0.26277310	     25.37286955	     -7.90518615	      1.72840195	    -55.48594420	      8.36569525	    -13.32100680	     -0.02550640	     -0.56957659	     13.14687659	      3.87633532	     -5.95982077	      3.46898251	    -14.24416885	     -2.09852569	     -0.91563809	     -4.59715346	      1.42985486
      1.66050000	      0.52938507	      6.65567947	     -0.28760494	      0.58979810	      0.99774592	      0.26256851	     25.71166080	     -7.84330537	      1.64602426	    -54.53104629	      8.45935925	    -13.36682781	     -0.21065760	     -1.03280672	     13.09018336	      4.13601874	     -5.73486971	      3.57030623	    -14.26834911	     -2.12679537	     -1.00210179	     -4.55504442	      1.22672001
      1.66466667	      0.53690545	      6.60813663	     -0.11877123	      0.59438889	      0.99769927	      0.26235897	     26.04844469	     -7.78795273	      1.55050500	    -53.54772960	      8.55546279	    -13.39069048	     -0.30018097	     -1.45837564	     13.02904678	      4.36552613	     -5.55350616	      3.69709398	    -14.22860037	     -2.13701456	     -1.06335658	     -4.51192640	      1.12387010
      1.66883333	      0.57514022	      6.56990416	      0.01493524	      0.59900601	      0.99766220	      0.26220495	     26.34547789	     -7.72965585	      1.47902104	    -52.54564998	      8.59755991	    -13.44905761	     -0.46483130	     -1.94744541	     12.97423325	      4.60079232	     -5.30450295	      3.80518357	    -14.24263901	     -2.15957996	     -1.17453586	     -4.48516994	      0.87386034
      1.67300000	      0.52404287	      6.55550126	      0.14815045	      0.60358838	      0.99742981	      0.26204689	     26.74735084	     -7.69292438	      1.42835855	    -51.55629449	      8.68833097	    -13.44903598	     -0.50529420	     -2.31118513	     12.94290680	      4.79433849	     -5.10678391	      3.94448806	    -14.15878931	     -2.16076835	     -1.16173286	     -4.48092025	      0.82229262
      1.67716667	      0.56833364	      6.52161893	      0.28668107	      0.60819967	      0.99734859	      0.26186912	     27.00580196	     -7.65093722	      1.33308683	    -50.51272351	      8.77516471	    -13.35424600	     -2.96834235	     -2.81336606	     12.89230499	      5.09795621	     -4.84642977	      3.97391963	    -14.35063216	     -2.55036250	     -1.28309280	     -4.44731502	      0.59253985
      1.68133333	      0.56253484	      6.49378030	      0.42878899	      0.61278034	      0.99716412	      0.26173095	     27.31120568	     -7.60763384	      1.24924127	    -49.45549154	      8.79710334	    -13.38570789	     -2.99567897	     -3.20547205	     12.83693295	      5.25528757	     -4.69768984	      4.18920692	    -14.18578852	     -2.54581757	     -1.34551072	     -4.43614421	      0.38190356
      1.68550000	      0.51735322	      6.47359533	      0.56126861	      0.61737382	      0.99689693	      0.26159780	     27.65134263	     -7.57255676	      1.16870588	    -48.38683073	      8.84535278	    -13.35537444	     -3.01073682	     -3.56326718	     12.79007865	      5.42299482	     -4.52740222	      4.34437748	    -14.09892963	     -2.54294645	     -1.35034202	     -4.42710753	      0.27059753
      1.68966667	      0.50130519	      6.45525465	      0.67663314	      0.62197283	      0.99664822	      0.26149340	     27.94462035	     -7.53323274	      1.09799590	    -47.29337338	      8.86877648	    -13.29359174	     -3.02610444	     -3.95859378	     12.74307961	      5.59016240	     -4.34316133	      4.49947877	    -14.02192409	     -2.54150242	     -1.39451131	     -4.41909905	      0.11125937
      1.69383333	      0.46599183	      6.45184146	      0.78691046	      0.62657394	      0.99631642	      0.26138359	     28.25436872	     -7.51265728	      1.02644325	    -46.20015566	      8.91161425	    -13.20464149	     -3.03520279	     -4.32994091	     12.71235249	      5.75086135	     -4.16593973	      4.65872994	    -13.94886401	     -2.54037736	     -1.40552680	     -4.41865585	     -0.01824141
      1.69800000	      0.43649154	      6.45167780	      0.88210211	      0.63118407	      0.99598660	      0.26129920	     28.54262581	     -7.49041123	      0.96193652	    -45.08247379	      8.94247356	    -13.07424617	     -3.03975306	     -4.71091554	     12.68354973	      5.90361692	     -3.97963269	      4.81244511	    -13.87300598	     -2.54110748	     -1.43396143	     -4.42651091	     -0.15973800
      1.70216667	      0.39800410	      6.44675944	      0.97623075	      0.63578988	      0.99562195	      0.26123880	     28.82514311	     -7.46014603	      0.89528965	    -43.94688048	      8.97408872	    -12.90363431	     -3.03812379	     -5.07742739	     12.64672769	      6.05035443	     -3.80147762	      4.96995769	    -13.79960722	     -2.54396517	     -1.45323543	     -4.43750136	     -0.30231313
